<?xml version="1.0" standalone="no"?>
<!DOCTYPE svg PUBLIC "-//W3C//DTD SVG 20010904//EN"
 "http://www.w3.org/TR/2001/REC-SVG-20010904/DTD/svg10.dtd">
<svg version="1.0" xmlns="http://www.w3.org/2000/svg"
 width="300.000000pt" height="300.000000pt" viewBox="0 0 300.000000 300.000000"
 preserveAspectRatio="xMidYMid meet">
<metadata>
Created by potrace 1.10, written by Peter Selinger 2001-2011
</metadata>
<g transform="translate(0.000000,300.000000) scale(0.100000,-0.100000)"
fill="#000000" stroke="none">
<path d="M1360 2979 c-130 -22 -276 -105 -340 -194 -8 -12 -34 -27 -58 -34
-87 -25 -154 -115 -183 -246 -15 -63 -19 -447 -6 -495 5 -22 12 -26 43 -26 29
0 43 -7 64 -32 14 -18 28 -32 31 -32 2 0 3 45 1 99 -3 95 6 141 28 141 5 0 15
-18 21 -40 l12 -39 62 86 c65 90 95 156 95 211 0 17 4 32 8 32 5 0 15 -15 24
-32 45 -93 180 -196 318 -243 75 -25 103 -29 233 -33 99 -3 147 -1 147 6 0 6
-5 14 -10 17 -12 7 -53 85 -45 85 3 0 23 -13 46 -29 37 -28 106 -56 153 -63
18 -3 19 2 17 51 -2 50 -1 54 14 41 38 -31 84 -159 87 -243 1 -26 5 -47 8 -47
3 0 12 15 20 33 10 22 23 33 41 35 25 3 27 8 45 105 14 73 19 147 19 262 0
141 -3 168 -23 230 -47 140 -116 213 -277 292 -195 95 -410 132 -595 102z
m330 -50 c118 -28 149 -38 245 -84 153 -74 233 -165 268 -307 37 -144 1 -551
-43 -501 -4 4 -20 41 -34 80 -29 76 -74 127 -102 116 -8 -3 -22 -19 -30 -35
-18 -35 -37 -33 -115 7 -69 36 -95 23 -91 -45 1 -25 -20 -31 -103 -25 -204 15
-358 88 -471 225 -27 33 -55 62 -62 65 -17 6 -50 -29 -57 -62 -9 -42 -33 -93
-68 -146 -31 -46 -33 -47 -73 -41 -39 6 -42 4 -63 -29 -13 -22 -21 -51 -21
-81 0 -37 -3 -46 -17 -46 -47 1 -48 7 -48 232 0 192 2 220 22 283 32 100 64
142 131 172 31 14 85 52 125 89 77 71 164 118 260 139 83 19 254 16 347 -6z"/>
<path d="M2240 1964 c0 -3 11 -22 25 -42 26 -38 33 -31 14 12 -10 22 -39 44
-39 30z"/>
<path d="M730 1950 c-8 -5 -11 -10 -7 -10 4 0 2 -10 -4 -22 -16 -30 -19 -90
-5 -107 6 -8 10 -16 9 -18 -2 -1 -2 -5 -2 -8 1 -3 2 -8 3 -12 3 -14 40 -67 68
-98 15 -16 28 -34 28 -38 0 -5 4 -6 9 -2 5 3 12 1 16 -5 3 -5 11 -10 17 -10 6
0 -17 27 -50 60 -35 35 -63 73 -67 90 -3 16 -12 34 -20 40 -18 15 -9 74 17
118 20 32 16 40 -12 22z"/>
<path d="M2258 1771 c-15 -32 -51 -82 -80 -111 -50 -50 -36 -45 28 11 32 28
49 51 64 89 6 14 14 33 20 42 5 9 6 19 2 22 -4 2 -19 -22 -34 -53z"/>
<path d="M869 1579 c-1 -19 0 -38 2 -44 1 -5 3 -22 3 -37 1 -14 5 -24 10 -21
5 3 6 0 4 -8 -3 -8 5 -28 18 -45 13 -17 20 -34 17 -38 -4 -3 -2 -6 4 -6 6 0
29 -24 50 -52 48 -63 144 -160 151 -153 4 4 -93 113 -128 145 -4 3 -19 23 -35
45 -17 22 -33 42 -37 45 -12 9 -38 77 -31 83 3 4 2 14 -2 24 -4 10 -10 34 -12
53 -5 46 -13 51 -14 9z"/>
<path d="M2126 1588 c-3 -7 -6 -31 -9 -54 -10 -86 -72 -181 -204 -311 -24 -23
-43 -44 -43 -48 0 -7 64 37 69 49 2 4 19 24 38 43 18 20 55 65 81 102 25 36
49 68 52 71 3 3 6 16 8 30 1 14 5 32 8 40 6 15 11 90 6 90 -1 0 -4 -6 -6 -12z"/>
<path d="M1809 1106 c-53 -47 -152 -100 -219 -115 -126 -29 -254 6 -380 104
-45 35 -56 39 -56 25 0 -10 3 -17 7 -14 4 2 17 -8 29 -23 50 -66 146 -154 199
-181 83 -45 167 -57 264 -38 43 8 99 27 125 41 86 48 83 42 80 148 l-3 95 -46
-42z m25 -32 c9 -23 7 -79 -3 -107 -7 -17 -32 -36 -78 -59 -61 -30 -76 -33
-165 -35 -91 -1 -170 14 -188 38 -3 3 -18 13 -35 22 -33 17 -95 74 -95 88 0 5
17 2 38 -7 129 -57 259 -57 376 0 39 19 85 43 101 54 37 25 41 26 49 6z"/>
<path d="M1141 1000 c-1 -53 3 -80 8 -71 12 18 12 106 1 134 -6 15 -9 -4 -9
-63z"/>
<path d="M880 769 c-131 -10 -200 -28 -281 -71 -159 -84 -228 -242 -217 -498
l3 -75 135 -27 c608 -122 1562 -111 2073 23 l37 10 0 92 c0 116 -14 210 -41
281 -40 107 -153 201 -289 240 -81 23 -340 40 -355 24 -7 -7 -70 -125 -141
-263 -194 -378 -196 -383 -192 -397 4 -12 39 48 148 257 131 251 163 310 169
315 4 3 12 17 18 31 10 22 20 28 63 34 28 4 53 5 55 3 2 -2 1 -68 -3 -147 l-7
-144 -72 2 c-40 1 -73 0 -73 -2 0 -3 25 -29 56 -59 l55 -53 -97 -115 c-53 -63
-112 -132 -130 -154 l-34 -39 -83 -1 c-45 -1 -91 -5 -101 -10 -17 -8 -18 -6
-13 15 7 27 57 316 57 328 0 4 -18 26 -40 50 -41 43 -41 44 -19 59 18 13 56
81 47 86 -2 1 -26 21 -54 44 l-52 42 -51 -42 c-45 -36 -51 -46 -46 -68 4 -14
18 -37 32 -52 l26 -27 -40 -44 -40 -43 27 -156 c15 -85 31 -165 35 -178 7 -21
5 -22 -16 -15 -13 4 -58 9 -99 11 -41 2 -78 3 -81 4 -5 0 -223 255 -253 294
-5 8 11 31 50 69 l59 57 -67 0 c-37 0 -70 -4 -73 -10 -4 -6 6 -10 24 -10 41 0
46 -13 16 -48 -14 -16 -25 -38 -25 -48 1 -22 89 -138 191 -250 10 -12 19 -25
19 -29 0 -7 -183 0 -270 10 -238 28 -464 69 -487 87 -16 13 -17 155 -4 240 20
121 97 223 206 274 87 40 265 69 280 45 3 -5 8 -63 11 -128 4 -65 11 -125 16
-133 6 -9 7 41 4 139 l-6 153 23 -6 c12 -3 36 -6 53 -6 27 0 35 -7 59 -52 28
-52 64 -119 151 -283 23 -44 61 -116 84 -159 46 -88 80 -140 87 -132 3 3 -30
72 -72 153 -43 81 -120 230 -172 331 -93 180 -95 182 -126 181 -18 -1 -84 -6
-147 -10z m1411 -63 c170 -51 259 -145 288 -301 15 -82 14 -230 -1 -243 -7 -5
-49 -17 -93 -26 -44 -9 -91 -19 -105 -21 -26 -6 -106 -17 -245 -35 -44 -5
-116 -12 -160 -16 -44 -3 -95 -7 -113 -8 -18 -2 -34 -1 -36 3 -5 8 28 53 128
175 84 104 89 123 45 167 -24 24 -18 37 17 37 49 0 59 22 64 150 3 64 10 123
14 131 10 16 124 9 197 -13z m-751 -138 c25 -27 25 -36 0 -68 -27 -34 -25 -49
12 -99 l31 -43 -17 -112 c-10 -61 -21 -127 -23 -146 -6 -44 -24 -64 -52 -55
-23 7 -25 14 -41 130 -14 98 -21 142 -25 166 -2 10 4 28 14 41 39 50 52 86 39
108 -7 11 -16 20 -20 20 -13 0 -9 35 8 58 19 28 48 28 74 0z"/>
<path d="M1324 494 c-36 -33 -37 -34 -8 -18 17 9 36 25 42 35 17 27 11 24 -34
-17z"/>
<path d="M1646 517 c6 -16 46 -47 61 -47 7 0 -15 21 -50 49 -15 12 -17 12 -11
-2z"/>
</g>
</svg>
